<svg height="512" viewBox="0 0 56 48" width="512" xmlns="http://www.w3.org/2000/svg"><g id="Page-1" fill="none" fill-rule="evenodd"><g id="030---Raindrops" fill="rgb(0,0,0)" fill-rule="nonzero"><path id="Shape" d="m28 37c1.1045695 0 2-.8954305 2-2h-4c0 1.1045695.8954305 2 2 2z"/><path id="Shape" d="m11 27.417c.0177538-1.7317103.2570303-3.4540307.712-5.125-.51-.581-.972-1.085-1.349-1.487-.0931378-.1008852-.2241957-.158261-.3615-.158261-.13730429 0-.26836219.0573758-.3615.158261-2.7 2.873-9.64 10.911-9.64 17.575.11266895 5.4145293 4.58516869 9.717074 10 9.62 4.1318631.0365109 7.8606839-2.4720192 9.384-6.313-5.1507264-2.9097547-8.3495417-8.3543033-8.384-14.27zm-3.27 2.083c-2.405 3.54-3.73 6.7-3.73 8.88 0 .5522847-.44771525 1-1 1s-1-.4477153-1-1c0-3.308 2.217-7.268 4.076-10.007.20131916-.2954587.54497104-.4610712.90150532-.434453s.6717849.2414231.82700001.5635c.15521511.3220768.12681384.7024944-.07450533.997953z"/><path id="Shape" d="m45.639 20.8c-.379.4-.841.907-1.351 1.488.4553077 1.6722629.6945872 3.3959492.712 5.129-.0344583 5.9156967-3.2332736 11.3602453-8.384 14.27 1.5233161 3.8409808 5.2521369 6.3495109 9.384 6.313 5.4148313.097074 9.887331-4.2054707 10-9.62 0-6.672-6.94-14.7-9.639-17.576-.0923993-.1013513-.2229771-.1594375-.3601236-.1601973-.1371464-.0007598-.2683598.055876-.3618764.1561973z"/><path id="Shape" d="m43 27.417c0-10.368-11.114-22.901-14.639-26.617-.0934211-.10000994-.2241443-.15678345-.361-.15678345s-.2675789.05677351-.361.15678345c-3.525 3.716-14.639 16.249-14.639 26.617.1261198 8.16439 6.8352989 14.687054 15 14.583 8.1647011.104054 14.8738802-6.41861 15-14.583zm-23.561-12.753c2.2900911-3.7257208 4.9045697-7.24203216 7.813-10.508.2370457-.2679492.5990342-.38908208.9496079-.31776907.3505736.07131302.636472.3242378.75.66350001.1135279.33926222.0374378.71331987-.1996079.98126906-2.8267773 3.17293708-5.3679716 6.5891937-7.594 10.209-.1794304.3150758-.5153541.5083425-.8779247.5050958-.3625706-.0032468-.6949795-.2024982-.8687387-.5207367s-.1616437-.7056013.0316634-1.0123591zm-1.439 5.336c-.5522847 0-1-.4477153-1-1s.4477153-1 1-1 1 .4477153 1 1-.4477153 1-1 1zm5 10c0-.5522847-.4477153-1-1-1s-1 .4477153-1 1-.4477153 1-1 1-1-.4477153-1-1c0-1.6568542 1.3431458-3 3-3s3 1.3431458 3 3c0 .5522847-.4477153 1-1 1s-1-.4477153-1-1zm9 5c0 2.209139-1.790861 4-4 4s-4-1.790861-4-4v-1c0-.5522847.4477153-1 1-1h6c.5522847 0 1 .4477153 1 1zm4-4c-.5522847 0-1-.4477153-1-1s-.4477153-1-1-1-1 .4477153-1 1-.4477153 1-1 1-1-.4477153-1-1c0-1.6568542 1.3431458-3 3-3s3 1.3431458 3 3c0 .5522847-.4477153 1-1 1z"/></g></g></svg>